<?xml version="1.0" encoding="UTF-8" standalone="no"?>
<!-- Generator: Adobe Illustrator 19.0.0, SVG Export Plug-In . SVG Version: 6.00 Build 0)  -->

<svg
   xmlns:dc="http://purl.org/dc/elements/1.1/"
   xmlns:cc="http://creativecommons.org/ns#"
   xmlns:rdf="http://www.w3.org/1999/02/22-rdf-syntax-ns#"
   xmlns:svg="http://www.w3.org/2000/svg"
   xmlns="http://www.w3.org/2000/svg"
   xmlns:sodipodi="http://sodipodi.sourceforge.net/DTD/sodipodi-0.dtd"
   xmlns:inkscape="http://www.inkscape.org/namespaces/inkscape"
   version="1.1"

   x="0px"
   y="0px"
   viewBox="0 0 459.334 459.334"
   style="enable-background:new 0 0 459.334 459.334;"
   xml:space="preserve"
   sodipodi:docname="bell.svg"
   inkscape:version="0.92.5 (2060ec1f9f, 2020-04-08)"><metadata
   id="metadata47"><rdf:RDF><cc:Work
       rdf:about=""><dc:format>image/svg+xml</dc:format><dc:type
         rdf:resource="http://purl.org/dc/dcmitype/StillImage" /><dc:title></dc:title></cc:Work></rdf:RDF></metadata><defs
   id="defs45" /><sodipodi:namedview
   

    />
<g
   id="g10">
	<g
   id="g8">
		<g
   id="g6">
			<path
   d="m 175.216,384.514 c -0.001,0.12 -0.009,0.239 -0.009,0.359 0,30.078 24.383,54.461 54.461,54.461 30.078,0 54.461,-24.383 54.461,-54.461 0,-0.12 -0.008,-0.239 -0.009,-0.359 z"
   id="path2"
   inkscape:connector-curvature="0"
   style="fill:#414141;fill-opacity:1" />
			<path
   d="m 403.549,336.438 -49.015,-72.002 v -89.83 c 0,-60.581 -39.144,-111.079 -96.381,-122.459 -7.18813,-14.96055 -8.43981,-16.456757 -20.29281,-20.362275 -7.8221,-2.317888 -10.52585,-1.66292 -17.67766,0.09609 -11.21339,2.757968 -13.68074,10.07579 -19.00053,20.267184 -57.237,11.381 -96.381,61.879001 -96.381,122.459001 v 89.83 l -49.015,72.002 c -5.163,7.584 -5.709,17.401 -1.419,25.511 4.29,8.11 12.712,13.182 21.887,13.182 H 383.08 c 9.175,0 17.597,-5.073 21.887,-13.182 4.291,-8.111 3.744,-17.928 -1.418,-25.512 z"
   id="path4"
   inkscape:connector-curvature="0"
   sodipodi:nodetypes="ccsccscsccssscc"
   style="fill:#414141;fill-opacity:1" />
		</g>
	</g>
</g>
<g
   id="g12">
</g>
<g
   id="g14">
</g>
<g
   id="g16">
</g>
<g
   id="g18">
</g>
<g
   id="g20">
</g>
<g
   id="g22">
</g>
<g
   id="g24">
</g>
<g
   id="g26">
</g>
<g
   id="g28">
</g>
<g
   id="g30">
</g>
<g
   id="g32">
</g>
<g
   id="g34">
</g>
<g
   id="g36">
</g>
<g
   id="g38">
</g>
<g
   id="g40">
</g>
</svg>