<?xml version="1.0" encoding="utf-8"?>
<!-- Generator: Adobe Illustrator 26.0.3, SVG Export Plug-In . SVG Version: 6.00 Build 0)  -->
<svg version="1.1" id="Layer_1" xmlns="http://www.w3.org/2000/svg" xmlns:xlink="http://www.w3.org/1999/xlink" x="0px" y="0px"
	 viewBox="0 0 50 50" style="enable-background:new 0 0 50 50;" xml:space="preserve">
<style type="text/css">
	.st0{fill:#FFFFFF;}
</style>
<path class="st0" d="M48.88,43.13L36.04,30.88c2.23-3.06,3.53-6.77,3.53-10.78c0-10.46-8.89-18.94-19.87-18.94
	S-0.16,9.64-0.16,20.11S8.73,39.05,19.7,39.05c4.11,0,7.93-1.19,11.1-3.23l12.87,12.28c1.27,1.21,3.35,1.21,4.63,0l0.58-0.56
	C50.15,46.32,50.15,44.34,48.88,43.13z M28.07,33.22c-2.44,1.42-5.31,2.23-8.37,2.23c-8.89,0-16.1-6.87-16.1-15.35
	c0-8.47,7.21-15.35,16.1-15.35s16.1,6.87,16.1,15.35c0,3.01-0.91,5.81-2.48,8.18C32,30.29,30.2,31.98,28.07,33.22z"/>
</svg>
