<?xml version="1.0" encoding="UTF-8" standalone="no"?>
<!-- Created with Inkscape (http://www.inkscape.org/) -->

<svg
   xmlns:dc="http://purl.org/dc/elements/1.1/"
   xmlns:cc="http://creativecommons.org/ns#"
   xmlns:rdf="http://www.w3.org/1999/02/22-rdf-syntax-ns#"
   xmlns:svg="http://www.w3.org/2000/svg"
   xmlns="http://www.w3.org/2000/svg"
   xmlns:sodipodi="http://sodipodi.sourceforge.net/DTD/sodipodi-0.dtd"
   xmlns:inkscape="http://www.inkscape.org/namespaces/inkscape"
   width="200mm"
   height="100mm"
   viewBox="0 0 200 100"
   version="1.1"
   id="svg8"
   inkscape:version="0.92.5 (2060ec1f9f, 2020-04-08)"
   sodipodi:docname="batt.svg">
  <defs
     id="defs2" />
  <sodipodi:namedview
     id="base"
     pagecolor="#ffffff"
     bordercolor="#666666"
     borderopacity="1.0"
     inkscape:pageopacity="0.0"
     inkscape:pageshadow="2"
     inkscape:zoom="0.35"
     inkscape:cx="546.79557"
     inkscape:cy="423.57773"
     inkscape:document-units="mm"
     inkscape:current-layer="layer1"
     showgrid="false"
     inkscape:window-width="1920"
     inkscape:window-height="1017"
     inkscape:window-x="-8"
     inkscape:window-y="-8"
     inkscape:window-maximized="1" />
  <metadata
     id="metadata5">
    <rdf:RDF>
      <cc:Work
         rdf:about="">
        <dc:format>image/svg+xml</dc:format>
        <dc:type
           rdf:resource="http://purl.org/dc/dcmitype/StillImage" />
        <dc:title></dc:title>
      </cc:Work>
    </rdf:RDF>
  </metadata>
  <g
     inkscape:label="Layer 1"
     inkscape:groupmode="layer"
     id="layer1"
     transform="translate(0,-197)">
    <path
       style="fill:#999999;fill-opacity:1;stroke-width:0.30726254"
       d="m 8.8114987,287.67541 c -2.1135444,-0.64291 -4.2859323,-2.49897 -5.4180676,-4.62912 -0.5472661,-1.0297 -0.5715606,-2.51248 -0.5715606,-34.8743 0,-32.36182 0.024271,-33.8446 0.5715606,-34.87429 0.796262,-1.49819 2.5799487,-3.30833 4.0373778,-4.09727 l 1.2290463,-0.6653 82.7129638,-0.0791 c 82.584791,-0.079 82.715561,-0.078 84.387471,0.54746 2.2297,0.83424 4.28225,3.00734 4.94343,5.23377 0.42717,1.43844 0.48406,5.42686 0.48406,33.93466 0,28.50783 -0.0569,32.49625 -0.48406,33.93468 -0.66036,2.22369 -2.714,4.39964 -4.93747,5.23154 -1.66266,0.62208 -1.95973,0.6242 -83.926585,0.59789 -45.241909,-0.0145 -82.6045794,-0.13184 -83.0281663,-0.26068 z"
       id="path869"
       inkscape:connector-curvature="0" />
    <path
       style="fill:#ffffff;stroke-width:0.30726254"
       d="m 175.20061,282.73903 c 1.78168,-1.66478 1.6855,0.30783 1.6855,-34.56704 0,-34.87486 0.0962,-32.90225 -1.6855,-34.56703 l -0.8221,-0.76816 -82.092822,-0.0785 c -79.091473,-0.0756 -82.131219,-0.058 -83.1428567,0.48464 -0.5775065,0.30973 -1.3026732,1.03424 -1.6114648,1.61001 -0.5335511,0.99487 -0.5614573,2.6506 -0.5614573,33.31905 0,30.66845 0.027871,32.32419 0.5614573,33.31904 0.3087916,0.57579 1.0339583,1.3003 1.6114648,1.61002 1.0116377,0.54255 4.0513837,0.56027 83.1428567,0.48463 l 82.092822,-0.0785 z"
       id="path867"
       inkscape:connector-curvature="0" />
    <path
       style="fill:#52d668;fill-opacity:1;stroke-width:0.30726254"
       d="m 11.472844,279.1045 c -0.465975,-0.51489 -0.508513,-3.10724 -0.508513,-30.9859 0,-29.08404 0.02473,-30.44637 0.561898,-30.9325 0.519825,-0.47043 6.544826,-0.50851 80.455173,-0.50851 77.009078,0 79.911618,0.0203 80.401778,0.5619 0.46597,0.5149 0.50851,3.10724 0.50851,30.9859 0,29.08404 -0.0247,30.44638 -0.5619,30.9325 -0.51982,0.47043 -6.54483,0.50852 -80.45517,0.50852 -77.009075,0 -79.911623,-0.0203 -80.401776,-0.56191 z"
       id="path865"
       inkscape:connector-curvature="0" />
    <path
       style="fill:#999999;fill-opacity:1;stroke-width:0.30726254"
       d="m 186.79306,248.24881 0.0791,-19.74162 1.30618,-0.0945 c 4.38791,-0.31744 8.84498,2.69659 10.06556,6.8067 0.67077,2.25873 0.67077,23.64648 0,25.90521 -1.22001,4.10822 -5.25888,6.86582 -10.05588,6.86582 H 186.714 Z"
       id="path836"
       inkscape:connector-curvature="0" />
    <path
       style="opacity:0;fill:#ffffff;fill-opacity:1;stroke:#4cbf76;stroke-width:0.43894655;stroke-opacity:1"
       d="m 12.157496,279.07456 c -0.707165,-0.18482 -0.775377,-1.23468 -0.859199,-13.22722 -0.138452,-19.80676 0.1481,-48.10101 0.490914,-48.47258 0.167643,-0.18172 36.342891,-0.28048 80.389439,-0.21948 l 80.08461,0.11091 0.11265,30.78402 0.11264,30.78403 -0.99055,0.26544 c -1.13657,0.30457 -158.173691,0.27979 -159.34055,-0.0252 z"
       id="path838"
       inkscape:connector-curvature="0" />
    <path
       style="opacity:0;fill:#ffffff;fill-opacity:1;stroke:#4cbf76;stroke-width:0.43894655;stroke-opacity:1"
       d="m 12.157496,279.07456 c -0.707165,-0.18482 -0.775377,-1.23468 -0.859199,-13.22722 -0.138452,-19.80676 0.1481,-48.10101 0.490914,-48.47258 0.167643,-0.18172 36.342891,-0.28048 80.389439,-0.21948 l 80.08461,0.11091 0.11265,30.78402 0.11264,30.78403 -0.99055,0.26544 c -1.13657,0.30457 -158.173691,0.27979 -159.34055,-0.0252 z"
       id="path840"
       inkscape:connector-curvature="0" />
    <path
       style="opacity:0;fill:#ffffff;fill-opacity:1;stroke:#4cbf76;stroke-width:0.43894655;stroke-opacity:1"
       d="m 12.157496,279.07456 c -0.707165,-0.18482 -0.775377,-1.23468 -0.859199,-13.22722 -0.138452,-19.80676 0.1481,-48.10101 0.490914,-48.47258 0.167643,-0.18172 36.342891,-0.28048 80.389439,-0.21948 l 80.08461,0.11091 0.11265,30.78402 0.11264,30.78403 -0.99055,0.26544 c -1.13657,0.30457 -158.173691,0.27979 -159.34055,-0.0252 z"
       id="path842"
       inkscape:connector-curvature="0" />
    <path
       style="opacity:0;fill:#ffffff;fill-opacity:1;stroke:#4cbf76;stroke-width:0.43894655;stroke-opacity:1"
       d="m 12.157496,279.07456 c -0.707165,-0.18482 -0.775377,-1.23468 -0.859199,-13.22722 -0.138452,-19.80676 0.1481,-48.10101 0.490914,-48.47258 0.167643,-0.18172 36.342891,-0.28048 80.389439,-0.21948 l 80.08461,0.11091 0.11265,30.78402 0.11264,30.78403 -0.99055,0.26544 c -1.13657,0.30457 -158.173691,0.27979 -159.34055,-0.0252 z"
       id="path844"
       inkscape:connector-curvature="0" />
    <path
       style="opacity:0;fill:#ffffff;fill-opacity:1;stroke:#4cbf76;stroke-width:0.43894655;stroke-opacity:1"
       d="m 12.157496,279.07456 c -0.707165,-0.18482 -0.775377,-1.23468 -0.859199,-13.22722 -0.138452,-19.80676 0.1481,-48.10101 0.490914,-48.47258 0.167643,-0.18172 36.342891,-0.28048 80.389439,-0.21948 l 80.08461,0.11091 0.11265,30.78402 0.11264,30.78403 -0.99055,0.26544 c -1.13657,0.30457 -158.173691,0.27979 -159.34055,-0.0252 z"
       id="path846"
       inkscape:connector-curvature="0" />
    <path
       style="opacity:0;fill:#ffffff;fill-opacity:1;stroke:#4cbf76;stroke-width:0.43894655;stroke-opacity:1"
       d="m 12.157496,279.07456 c -0.707165,-0.18482 -0.775377,-1.23468 -0.859199,-13.22722 -0.138452,-19.80676 0.1481,-48.10101 0.490914,-48.47258 0.167643,-0.18172 36.342891,-0.28048 80.389439,-0.21948 l 80.08461,0.11091 0.11265,30.78402 0.11264,30.78403 -0.99055,0.26544 c -1.13657,0.30457 -158.173691,0.27979 -159.34055,-0.0252 z"
       id="path848"
       inkscape:connector-curvature="0" />
  </g>
</svg>
