<?xml version="1.0" encoding="UTF-8" standalone="no"?>
<svg
   xmlns:dc="http://purl.org/dc/elements/1.1/"
   xmlns:cc="http://creativecommons.org/ns#"
   xmlns:rdf="http://www.w3.org/1999/02/22-rdf-syntax-ns#"
   xmlns:svg="http://www.w3.org/2000/svg"
   xmlns="http://www.w3.org/2000/svg"
   xmlns:sodipodi="http://sodipodi.sourceforge.net/DTD/sodipodi-0.dtd"
   xmlns:inkscape="http://www.inkscape.org/namespaces/inkscape"
   id="bold"
   enable-background="new 0 0 24 24"
   height="512"
   viewBox="0 0 24 24"
   width="512"
   version="1.1"
   sodipodi:docname="signal.svg"
   inkscape:version="0.92.5 (2060ec1f9f, 2020-04-08)">
  <metadata
     id="metadata23">
    <rdf:RDF>
      <cc:Work
         rdf:about="">
        <dc:format>image/svg+xml</dc:format>
        <dc:type
           rdf:resource="http://purl.org/dc/dcmitype/StillImage" />
      </cc:Work>
    </rdf:RDF>
  </metadata>
  <defs
     id="defs21" />
  <sodipodi:namedview
     pagecolor="#ffffff"
     bordercolor="#666666"
     borderopacity="1"
     objecttolerance="10"
     gridtolerance="10"
     guidetolerance="10"
     inkscape:pageopacity="0"
     inkscape:pageshadow="2"
     inkscape:window-width="716"
     inkscape:window-height="403"
     id="namedview19"
     showgrid="false"
     inkscape:zoom="0.4609375"
     inkscape:cx="-96.542373"
     inkscape:cy="256"
     inkscape:window-x="848"
     inkscape:window-y="195"
     inkscape:window-maximized="0"
     inkscape:current-layer="bold" />
  <g
     id="g4"
     style="fill:#343434;fill-opacity:1">
    <path
       d="m22.25 19h-3c-.414 0-.75-.336-.75-.75v-12.5c0-.414.336-.75.75-.75h3c.414 0 .75.336.75.75v12.5c0 .414-.336.75-.75.75z"
       id="path2"
       style="fill:#343434;fill-opacity:1" />
  </g>
  <g
     id="g8"
     style="fill:#ffffff">
    <path
       d="m16.25 19h-3c-.414 0-.75-.336-.75-.75v-10.5c0-.414.336-.75.75-.75h3c.414 0 .75.336.75.75v10.5c0 .414-.336.75-.75.75z"
       id="path6"
       style="fill:#ffffff" />
  </g>
  <g
     id="g12"
     style="fill:#ffffff">
    <path
       d="m10.25 19h-3c-.414 0-.75-.336-.75-.75v-7.5c0-.414.336-.75.75-.75h3c.414 0 .75.336.75.75v7.5c0 .414-.336.75-.75.75z"
       id="path10"
       style="fill:#ffffff" />
  </g>
  <g
     id="g16"
     style="fill:#ffffff">
    <path
       d="m4.25 19h-3c-.414 0-.75-.336-.75-.75v-4.5c0-.414.336-.75.75-.75h3c.414 0 .75.336.75.75v4.5c0 .414-.336.75-.75.75z"
       id="path14"
       style="fill:#ffffff" />
  </g>
</svg>
